<?xml version="1.0" standalone="no"?><!DOCTYPE svg PUBLIC "-//W3C//DTD SVG 1.1//EN" "http://www.w3.org/Graphics/SVG/1.1/DTD/svg11.dtd"><svg t="1660184431605" class="icon" viewBox="0 0 1024 1024" version="1.1" xmlns="http://www.w3.org/2000/svg" p-id="14347" xmlns:xlink="http://www.w3.org/1999/xlink" width="200" height="200"><defs><style type="text/css">@font-face { font-family: feedback-iconfont; src: url("//at.alicdn.com/t/font_1031158_u69w8yhxdu.woff2?t=1630033759944") format("woff2"), url("//at.alicdn.com/t/font_1031158_u69w8yhxdu.woff?t=1630033759944") format("woff"), url("//at.alicdn.com/t/font_1031158_u69w8yhxdu.ttf?t=1630033759944") format("truetype"); }
</style></defs><path d="M1020.3136 161.05472L783.872 895.3856c-12.86144 39.936-55.25504 61.7472-94.69952 48.7424a74.81344 74.81344 0 0 1-22.03648-11.63264L300.6464 652.16512 724.72576 283.4432 219.5456 590.15168l-169.22624-129.4336C17.2032 435.4048 10.6496 387.6864 35.67616 354.22208a75.14112 75.14112 0 0 1 38.0928-26.91072l853.25824-262.5536c39.69024-12.22656 81.65376 10.4448 93.71648 50.60608a76.9024 76.9024 0 0 1-0.43008 45.6704zM289.85344 739.90144a20.48 20.48 0 0 1 32.80896-16.384l120.66816 90.8288a20.48 20.48 0 0 1 2.64192 30.35136l-120.66816 129.16736a20.48 20.48 0 0 1-35.4304-13.98784V739.90144z" p-id="14348"></path></svg>